<svg version="1" xmlns="http://www.w3.org/2000/svg" width="426.667" height="426.667" viewBox="0 0 320.000000 320.000000"><path d="M144.5 35.1c-4.7.6-12.8 2.2-17.5 3.4-9.9 2.6-22.4 7.9-31.6 13.5-32.6 19.7-53.8 51.4-59.8 89.3-1.7 10.8-1.3 33 .8 42.9 11 51.2 48.7 88.9 99.6 99.4 11.6 2.4 36.4 2.5 47.7.1 43.1-9.1 76.4-36.5 93-76.7 7.8-18.8 10.8-43.6 7.8-65.5-2.4-18.4-11.5-40.2-23.2-56.1-20-26.9-50.9-45.6-82.8-49.9-7.6-1.1-27.3-1.3-34-.4zm34 21.3c24.5 5.4 44 16.3 58.8 32.8 14 15.6 23.2 34.3 26.5 53.8.9 5.6.8 30.4-.1 34.5-.4 1.6-1 4.3-1.3 6-1 5.9-5.7 18.1-9.6 25.5-15.3 28.7-41.9 48.1-74.8 54.5-7.5 1.4-30 1.5-36.5.1-24.8-5.5-43.8-16.1-58.8-32.8-14-15.6-23.2-34.3-26.5-53.8-.9-5.4-.9-27.9 0-33.5 1.5-9.8 3.8-17 9.3-29 9.6-20.8 29.3-40.1 51.2-50.1 8.8-4 15.4-6.1 25.8-8 1.6-.3 3.1-.7 3.3-.9.6-.6 29.5.2 32.7.9z"/></svg>